# xmcd
#
# Track frame offsets:
#	150
#	16987
#	37037
#	54897
#	71537
#	87480
#	100702
#	112250
#	126985
#	142467
#	157945
#
# Disc length: 2289 seconds
#
# Revision: 1
# Processed by: cddbd v1.5.2PL0 Copyright (c) Steve Scherf et al.
# Submitted via: audiograbber 1.83.01
#
DISCID=9a08ef0b
DTITLE=Johnny U - Everybody wants to be a cowboy
DYEAR=2000
DGENRE=Country
TTITLE0=Everybody wants to be a cowboy
TTITLE1=He's still somewhere
TTITLE2=Goin' to Tennessee
TTITLE3=Here to stay
TTITLE4=Faith
TTITLE5=God let one cowboy
TTITLE6=Last goodbye
TTITLE7=Where they'll bury me
TTITLE8=The man upstairs
TTITLE9=If I could only move you
TTITLE10=When I make you fell like a woman
EXTD=
EXTT0=
EXTT1=
EXTT2=
EXTT3=
EXTT4=
EXTT5=
EXTT6=
EXTT7=
EXTT8=
EXTT9=
EXTT10=
PLAYORDER=
